# xmcd
#
# Track frame offsets:
#	150
#	21897
#	33194
#	50706
#	70457
#	82202
#	101425
#	118537
#	132643
#	152283
#	167933
#	184073
#	201498
#	219276
#	240521
#
# Disc length: 3410 seconds
#
# Revision: 1
# Processed by: cddbd v1.5.1PL2 Copyright (c) Steve Scherf et al.
# Submitted via: audiograbber 1.83.01
#
DISCID=d40d500f
DTITLE=Willie Nelson - SC8901
DYEAR=1900
DGENRE=
TTITLE0=WILLIE NELSON - ANGEL FLYING TOO CLOSE TO THE GROUND
TTITLE1=WILLIE NELSON - BLUE EYES CRYING IN THE RAIN
TTITLE2=WILLIE NELSON - ALWAYS ON MY MIND
TTITLE3=WILLIE NELSON - ALL OF ME
TTITLE4=WILLIE NELSON - ON THE ROAD AGAIN
TTITLE5=WILLIE NELSON - SEVEN SPANISH ANGELS
TTITLE6=WILLIE NELSON - TO ALL THE GIRLS IVE LOVED BEFORE
TTITLE7=WILLIE NELSON - MAMAS DONT LET YOUR BABIES GROW UP TO BE COWBOYS
TTITLE8=WILLIE NELSON - HELP ME MAKE IT THROUGH THE NIGHT
TTITLE9=WILLIE NELSON - GOOD HEARTED WOMAN
TTITLE10=WILLIE NELSON - BEER FOR MY HORSES
TTITLE11=WILLIE NELSON - BLUE SKIES
TTITLE12=WILLIE NELSON - WHISKEY RIVER
TTITLE13=WILLIE NELSON - MENDOCINO COUNTY LINE
TTITLE14=WILLIE NELSON - MY HEROES HAVE ALWAYS BEEN COWBOYS 
EXTD=
EXTT0=
EXTT1=
EXTT2=
EXTT3=
EXTT4=
EXTT5=
EXTT6=
EXTT7=
EXTT8=
EXTT9=
EXTT10=
EXTT11=
EXTT12=
EXTT13=
EXTT14=
PLAYORDER=
